<svg xmlns="http://www.w3.org/2000/svg" width="150" height="53" viewBox="0 0 150 53" fill="none">
<g clip-path="url(#clip0_0_130)">
<path d="M55.2183 5.79534L55.3456 5.88201H55.4997H149.5V45.0939L139.271 51.7824H8.93774V0.5H47.4392L55.2183 5.79534Z" fill="#D9D9D9" fill-opacity="0.05" stroke="#B026FF"/>
<path d="M2.35937 47.8035H0.35V52.65H5.54843V0.349998H0.35V35.6037L2.61222 37.9673L2.70937 38.0688V38.2093V47.4535V47.8035H2.35937Z" stroke="#B026FF" stroke-width="0.7"/>
<path d="M55.3062 26C57.3009 26 58.2983 26.9973 58.2983 28.992C58.2983 30.9973 57.3009 32 55.3062 32H47.8822L48.5862 30.592H54.9542C55.3916 30.592 55.7649 30.4373 56.0743 30.128C56.3836 29.8187 56.5382 29.4453 56.5382 29.008C56.5382 28.56 56.3836 28.1813 56.0743 27.872C55.7649 27.5627 55.3916 27.408 54.9542 27.408H50.7142C48.7089 27.408 47.7062 26.4107 47.7062 24.416C47.7062 22.4107 48.7089 21.408 50.7142 21.408H57.9462L57.2422 22.816H51.0662C50.6289 22.816 50.2502 22.9707 49.9302 23.28C49.6209 23.5893 49.4662 23.968 49.4662 24.416C49.4662 24.8533 49.6209 25.2267 49.9302 25.536C50.2502 25.8453 50.6289 26 51.0662 26H55.3062ZM61.6324 32H59.6004V24.32H61.6324V32ZM61.3284 23.152C61.1364 23.344 60.8964 23.44 60.6084 23.44C60.331 23.44 60.091 23.344 59.8884 23.152C59.6964 22.9493 59.6004 22.7093 59.6004 22.432C59.6004 22.144 59.6964 21.904 59.8884 21.712C60.091 21.5093 60.331 21.408 60.6084 21.408C60.8964 21.408 61.1364 21.5093 61.3284 21.712C61.531 21.904 61.6324 22.144 61.6324 22.432C61.6324 22.7093 61.531 22.9493 61.3284 23.152ZM70.8835 24.32H72.8035V33.12V33.136C72.8995 33.808 72.7182 34.4 72.2595 34.912C71.8115 35.328 71.2888 35.5147 70.6915 35.472H63.3795L63.8755 34.08H69.7315C70.0515 34.0907 70.3288 33.984 70.5635 33.76C70.7768 33.5787 70.8835 33.344 70.8835 33.056V31.136C70.7128 31.392 70.4888 31.5947 70.2115 31.744C69.9448 31.8933 69.6622 31.9787 69.3635 32H65.9715C65.1928 32.0107 64.5262 31.7493 63.9715 31.216C63.3955 30.7467 63.1075 30.1493 63.1075 29.424V26.912C63.1075 26.176 63.3902 25.5733 63.9555 25.104C64.5315 24.5707 65.2088 24.3093 65.9875 24.32H69.0435C69.4382 24.3307 69.8008 24.448 70.1315 24.672C70.4622 24.896 70.7075 25.1893 70.8675 25.552L70.8835 24.32ZM70.8835 28.816V27.472C70.8835 27.024 70.7235 26.64 70.4035 26.32C70.0835 26 69.6995 25.84 69.2515 25.84H66.5795C66.1635 25.8187 65.7955 25.9413 65.4755 26.208C65.1555 26.4853 65.0062 26.832 65.0275 27.248V29.12C65.0168 29.5253 65.1662 29.8667 65.4755 30.144C65.7955 30.4107 66.1635 30.5333 66.5795 30.512H69.1875C69.6568 30.512 70.0568 30.3467 70.3875 30.016C70.7182 29.6853 70.8835 29.2853 70.8835 28.816ZM82.435 25.216C82.9683 25.8133 83.2457 26.512 83.267 27.312V32H81.267V27.424C81.2883 26.9867 81.139 26.6187 80.819 26.32C80.4883 26.0213 80.1043 25.8827 79.667 25.904H78.611C77.971 25.9147 77.4323 26.1493 76.995 26.608C76.5577 27.0667 76.3443 27.616 76.355 28.256V32H74.371V25.904L76.371 24.32V25.68L76.691 25.232C76.7977 25.0507 76.931 24.8907 77.091 24.752C77.251 24.6133 77.4323 24.5067 77.635 24.432C77.8377 24.3573 78.0457 24.32 78.259 24.32H80.275C80.5417 24.2987 80.8083 24.32 81.075 24.384C81.3417 24.448 81.587 24.5547 81.811 24.704C82.0457 24.8427 82.2537 25.0133 82.435 25.216ZM92.5992 32H90.5672V24.32H92.5992V32ZM92.2952 23.152C92.1032 23.344 91.8632 23.44 91.5752 23.44C91.2979 23.44 91.0579 23.344 90.8552 23.152C90.6632 22.9493 90.5672 22.7093 90.5672 22.432C90.5672 22.144 90.6632 21.904 90.8552 21.712C91.0579 21.5093 91.2979 21.408 91.5752 21.408C91.8632 21.408 92.1032 21.5093 92.2952 21.712C92.4979 21.904 92.5992 22.144 92.5992 22.432C92.5992 22.7093 92.4979 22.9493 92.2952 23.152ZM102.234 25.216C102.768 25.8133 103.045 26.512 103.066 27.312V32H101.066V27.424C101.088 26.9867 100.938 26.6187 100.618 26.32C100.288 26.0213 99.9037 25.8827 99.4664 25.904H98.4104C97.7704 25.9147 97.2317 26.1493 96.7944 26.608C96.357 27.0667 96.1437 27.616 96.1544 28.256V32H94.1704V25.904L96.1704 24.32V25.68L96.4904 25.232C96.597 25.0507 96.7304 24.8907 96.8904 24.752C97.0504 24.6133 97.2317 24.5067 97.4344 24.432C97.637 24.3573 97.845 24.32 98.0584 24.32H100.074C100.341 24.2987 100.608 24.32 100.874 24.384C101.141 24.448 101.386 24.5547 101.61 24.704C101.845 24.8427 102.053 25.0133 102.234 25.216Z" fill="white"/>
</g>
<defs>
<clipPath id="clip0_0_130">
<rect width="150" height="53" fill="white"/>
</clipPath>
</defs>
</svg>