<svg xmlns="http://www.w3.org/2000/svg" width="853" height="114" viewBox="0 0 853 114" fill="none">
<rect width="152" height="107" rx="3" fill="#F86720"/>
<rect x="0.5" y="0.5" width="151" height="106" rx="2.5" stroke="white" stroke-opacity="0.5"/>
<g filter="url(#filter0_d_0_95)">
<mask id="path-3-outside-1_0_95" maskUnits="userSpaceOnUse" x="14" y="20" width="835" height="64" fill="black">
<rect fill="white" x="14" y="20" width="835" height="64"/>
<path d="M65.28 26.38L75.18 22.42V82L65.28 78.04V56.17H25.5V78.04L15.6 82V22.42L25.5 26.38V48.25H65.28V26.38ZM140.537 42.13C143.177 45.43 144.287 49.15 143.867 53.29V82H132.527V76.51C127.787 80.11 122.477 81.94 116.597 82H103.367C99.4069 82.12 95.9869 80.77 93.1069 77.95C90.4669 75.49 89.1469 72.46 89.1469 68.86C89.0869 65.14 90.4069 61.99 93.1069 59.41C95.8669 56.35 99.3169 54.76 103.457 54.64H132.527V54.28C132.527 52.42 131.837 50.86 130.457 49.6C129.017 48.16 127.307 47.47 125.327 47.53H92.0269L94.3669 38.8H130.997C134.657 38.56 137.837 39.67 140.537 42.13ZM132.527 68.05V61.93H107.327C105.467 61.93 103.877 62.59 102.557 63.91C101.297 65.17 100.667 66.7 100.667 68.5C100.667 70.24 101.267 71.77 102.467 73.09C103.907 74.41 105.587 75.07 107.507 75.07H116.057C122.417 74.83 127.907 72.49 132.527 68.05ZM178.989 72.82H205.629L208.599 82H175.479C170.739 82.06 166.629 80.47 163.149 77.23C159.729 74.35 157.989 70.66 157.929 66.16V54.64C157.929 50.14 159.669 46.45 163.149 43.57C166.569 40.33 170.649 38.74 175.389 38.8H208.599L205.539 47.89H178.989C176.469 47.77 174.249 48.55 172.329 50.23C170.409 51.91 169.509 54.04 169.629 56.62V64.18C169.509 66.76 170.409 68.89 172.329 70.57C174.309 72.13 176.529 72.88 178.989 72.82ZM249.435 58.96L273.195 82H258.165L240.705 64.09H233.865V82H221.625V29.8L233.865 22.42V55.27H239.625L255.735 38.8H270.585L249.435 58.96ZM283.981 22.42L293.881 26.38V82L283.981 78.04V22.42ZM354.671 43.84C357.671 47.2 359.231 51.13 359.351 55.63V82H348.101V56.26C348.221 53.8 347.381 51.73 345.581 50.05C343.721 48.37 341.561 47.59 339.101 47.71H333.161C329.561 47.77 326.531 49.09 324.071 51.67C321.611 54.25 320.411 57.34 320.471 60.94V82H309.311V47.71L320.561 38.8V46.45L322.361 43.93C322.961 42.91 323.711 42.01 324.611 41.23C325.511 40.45 326.531 39.85 327.671 39.43C328.811 39.01 329.981 38.8 331.181 38.8H342.521C344.021 38.68 345.521 38.8 347.021 39.16C348.521 39.52 349.901 40.12 351.161 40.96C352.481 41.74 353.651 42.7 354.671 43.84ZM416.97 22.42L427.77 28.99V82H416.97L416.88 75.07C416.28 76.39 415.44 77.59 414.36 78.67C413.34 79.69 412.14 80.5 410.76 81.1C409.44 81.64 408.06 81.94 406.62 82H389.43C385.05 82 381.24 80.53 378 77.59C374.82 74.95 373.23 71.56 373.23 67.42V53.29C373.23 49.15 374.85 45.79 378.09 43.21C381.21 40.21 384.96 38.74 389.34 38.8H408.42C412.02 39.04 414.87 40.66 416.97 43.66V22.42ZM416.97 64.27V56.71C416.97 54.07 416.04 51.82 414.18 49.96C412.32 48.1 410.07 47.17 407.43 47.17H392.76C390.42 47.05 388.35 47.77 386.55 49.33C384.81 50.83 383.97 52.75 384.03 55.09V65.53C383.91 67.93 384.75 69.88 386.55 71.38C388.35 72.88 390.42 73.6 392.76 73.54H407.79C410.31 73.54 412.47 72.64 414.27 70.84C416.07 69.04 416.97 66.85 416.97 64.27ZM454.768 82H443.338V38.8H454.768V82ZM453.058 32.23C451.978 33.31 450.628 33.85 449.008 33.85C447.448 33.85 446.098 33.31 444.958 32.23C443.878 31.09 443.338 29.74 443.338 28.18C443.338 26.56 443.878 25.21 444.958 24.13C446.098 22.99 447.448 22.42 449.008 22.42C450.628 22.42 451.978 22.99 453.058 24.13C454.198 25.21 454.768 26.56 454.768 28.18C454.768 29.74 454.198 31.09 453.058 32.23ZM519.855 42.13C522.495 45.43 523.605 49.15 523.185 53.29V82H511.845V76.51C507.105 80.11 501.795 81.94 495.915 82H482.685C478.725 82.12 475.305 80.77 472.425 77.95C469.785 75.49 468.465 72.46 468.465 68.86C468.405 65.14 469.725 61.99 472.425 59.41C475.185 56.35 478.635 54.76 482.775 54.64H511.845V54.28C511.845 52.42 511.155 50.86 509.775 49.6C508.335 48.16 506.625 47.47 504.645 47.53H471.345L473.685 38.8H510.315C513.975 38.56 517.155 39.67 519.855 42.13ZM511.845 68.05V61.93H486.645C484.785 61.93 483.195 62.59 481.875 63.91C480.615 65.17 479.985 66.7 479.985 68.5C479.985 70.24 480.585 71.77 481.785 73.09C483.225 74.41 484.905 75.07 486.825 75.07H495.375C501.735 74.83 507.225 72.49 511.845 68.05ZM601.508 82H537.518V66.25C537.578 61.51 539.378 57.55 542.918 54.37C546.458 51.13 550.658 49.51 555.518 49.51H584.318C586.358 49.57 588.098 48.88 589.538 47.44C590.978 46.06 591.668 44.38 591.608 42.4C591.668 40.48 590.978 38.86 589.538 37.54C588.098 36.1 586.358 35.41 584.318 35.47H540.668L543.908 25.93H586.838C591.938 25.63 596.288 27.25 599.888 30.79C603.128 33.79 604.748 37.51 604.748 41.95C604.928 46.87 603.278 51.07 599.798 54.55C596.198 58.09 591.878 59.74 586.838 59.5H557.588C555.608 59.5 553.898 60.19 552.458 61.57C550.958 62.83 550.208 64.48 550.208 66.52V72.1H604.838L601.508 82ZM667.098 82H639.468C633.708 82.3 628.758 80.47 624.618 76.51C620.958 73.09 619.128 68.89 619.128 63.91V44.02C619.068 38.98 620.898 34.75 624.618 31.33C628.818 27.43 633.768 25.63 639.468 25.93H667.098C672.858 25.63 677.838 27.43 682.038 31.33C685.698 34.69 687.498 38.86 687.438 43.84V64.09C687.438 69.01 685.608 73.15 681.948 76.51C677.808 80.47 672.858 82.3 667.098 82ZM662.958 35.47H643.698C640.578 35.41 637.818 36.37 635.418 38.35C633.138 40.45 631.998 43.03 631.998 46.09V61.48C631.878 64.6 633.018 67.18 635.418 69.22C637.818 71.2 640.578 72.16 643.698 72.1H662.958C666.138 72.16 668.928 71.17 671.328 69.13C673.668 67.09 674.778 64.51 674.658 61.39V46.18C674.778 43.06 673.668 40.45 671.328 38.35C668.928 36.31 666.138 35.35 662.958 35.47ZM765.758 82H701.768V66.25C701.828 61.51 703.628 57.55 707.168 54.37C710.708 51.13 714.908 49.51 719.768 49.51H748.568C750.608 49.57 752.348 48.88 753.788 47.44C755.228 46.06 755.918 44.38 755.858 42.4C755.918 40.48 755.228 38.86 753.788 37.54C752.348 36.1 750.608 35.41 748.568 35.47H704.918L708.158 25.93H751.088C756.188 25.63 760.538 27.25 764.138 30.79C767.378 33.79 768.998 37.51 768.998 41.95C769.178 46.87 767.528 51.07 764.048 54.55C760.448 58.09 756.128 59.74 751.088 59.5H721.838C719.858 59.5 718.148 60.19 716.708 61.57C715.208 62.83 714.458 64.48 714.458 66.52V72.1H769.088L765.758 82ZM829.278 82H783.198L786.528 71.92H827.298C829.518 71.98 831.408 71.23 832.968 69.67C834.408 68.17 835.128 66.4 835.128 64.36C835.128 62.26 834.408 60.49 832.968 59.05C831.408 57.49 829.518 56.74 827.298 56.8H783.918V25.93H844.398L841.068 35.38H796.608V47.08L829.278 47.17C834.498 46.93 838.998 48.61 842.778 52.21C846.198 55.57 847.908 59.62 847.908 64.36C847.968 69.22 846.258 73.36 842.778 76.78C839.058 80.5 834.558 82.24 829.278 82Z"/>
</mask>
<path d="M65.28 26.38L75.18 22.42V82L65.28 78.04V56.17H25.5V78.04L15.6 82V22.42L25.5 26.38V48.25H65.28V26.38ZM140.537 42.13C143.177 45.43 144.287 49.15 143.867 53.29V82H132.527V76.51C127.787 80.11 122.477 81.94 116.597 82H103.367C99.4069 82.12 95.9869 80.77 93.1069 77.95C90.4669 75.49 89.1469 72.46 89.1469 68.86C89.0869 65.14 90.4069 61.99 93.1069 59.41C95.8669 56.35 99.3169 54.76 103.457 54.64H132.527V54.28C132.527 52.42 131.837 50.86 130.457 49.6C129.017 48.16 127.307 47.47 125.327 47.53H92.0269L94.3669 38.8H130.997C134.657 38.56 137.837 39.67 140.537 42.13ZM132.527 68.05V61.93H107.327C105.467 61.93 103.877 62.59 102.557 63.91C101.297 65.17 100.667 66.7 100.667 68.5C100.667 70.24 101.267 71.77 102.467 73.09C103.907 74.41 105.587 75.07 107.507 75.07H116.057C122.417 74.83 127.907 72.49 132.527 68.05ZM178.989 72.82H205.629L208.599 82H175.479C170.739 82.06 166.629 80.47 163.149 77.23C159.729 74.35 157.989 70.66 157.929 66.16V54.64C157.929 50.14 159.669 46.45 163.149 43.57C166.569 40.33 170.649 38.74 175.389 38.8H208.599L205.539 47.89H178.989C176.469 47.77 174.249 48.55 172.329 50.23C170.409 51.91 169.509 54.04 169.629 56.62V64.18C169.509 66.76 170.409 68.89 172.329 70.57C174.309 72.13 176.529 72.88 178.989 72.82ZM249.435 58.96L273.195 82H258.165L240.705 64.09H233.865V82H221.625V29.8L233.865 22.42V55.27H239.625L255.735 38.8H270.585L249.435 58.96ZM283.981 22.42L293.881 26.38V82L283.981 78.04V22.42ZM354.671 43.84C357.671 47.2 359.231 51.13 359.351 55.63V82H348.101V56.26C348.221 53.8 347.381 51.73 345.581 50.05C343.721 48.37 341.561 47.59 339.101 47.71H333.161C329.561 47.77 326.531 49.09 324.071 51.67C321.611 54.25 320.411 57.34 320.471 60.94V82H309.311V47.71L320.561 38.8V46.45L322.361 43.93C322.961 42.91 323.711 42.01 324.611 41.23C325.511 40.45 326.531 39.85 327.671 39.43C328.811 39.01 329.981 38.8 331.181 38.8H342.521C344.021 38.68 345.521 38.8 347.021 39.16C348.521 39.52 349.901 40.12 351.161 40.96C352.481 41.74 353.651 42.7 354.671 43.84ZM416.97 22.42L427.77 28.99V82H416.97L416.88 75.07C416.28 76.39 415.44 77.59 414.36 78.67C413.34 79.69 412.14 80.5 410.76 81.1C409.44 81.64 408.06 81.94 406.62 82H389.43C385.05 82 381.24 80.53 378 77.59C374.82 74.95 373.23 71.56 373.23 67.42V53.29C373.23 49.15 374.85 45.79 378.09 43.21C381.21 40.21 384.96 38.74 389.34 38.8H408.42C412.02 39.04 414.87 40.66 416.97 43.66V22.42ZM416.97 64.27V56.71C416.97 54.07 416.04 51.82 414.18 49.96C412.32 48.1 410.07 47.17 407.43 47.17H392.76C390.42 47.05 388.35 47.77 386.55 49.33C384.81 50.83 383.97 52.75 384.03 55.09V65.53C383.91 67.93 384.75 69.88 386.55 71.38C388.35 72.88 390.42 73.6 392.76 73.54H407.79C410.31 73.54 412.47 72.64 414.27 70.84C416.07 69.04 416.97 66.85 416.97 64.27ZM454.768 82H443.338V38.8H454.768V82ZM453.058 32.23C451.978 33.31 450.628 33.85 449.008 33.85C447.448 33.85 446.098 33.31 444.958 32.23C443.878 31.09 443.338 29.74 443.338 28.18C443.338 26.56 443.878 25.21 444.958 24.13C446.098 22.99 447.448 22.42 449.008 22.42C450.628 22.42 451.978 22.99 453.058 24.13C454.198 25.21 454.768 26.56 454.768 28.18C454.768 29.74 454.198 31.09 453.058 32.23ZM519.855 42.13C522.495 45.43 523.605 49.15 523.185 53.29V82H511.845V76.51C507.105 80.11 501.795 81.94 495.915 82H482.685C478.725 82.12 475.305 80.77 472.425 77.95C469.785 75.49 468.465 72.46 468.465 68.86C468.405 65.14 469.725 61.99 472.425 59.41C475.185 56.35 478.635 54.76 482.775 54.64H511.845V54.28C511.845 52.42 511.155 50.86 509.775 49.6C508.335 48.16 506.625 47.47 504.645 47.53H471.345L473.685 38.8H510.315C513.975 38.56 517.155 39.67 519.855 42.13ZM511.845 68.05V61.93H486.645C484.785 61.93 483.195 62.59 481.875 63.91C480.615 65.17 479.985 66.7 479.985 68.5C479.985 70.24 480.585 71.77 481.785 73.09C483.225 74.41 484.905 75.07 486.825 75.07H495.375C501.735 74.83 507.225 72.49 511.845 68.05ZM601.508 82H537.518V66.25C537.578 61.51 539.378 57.55 542.918 54.37C546.458 51.13 550.658 49.51 555.518 49.51H584.318C586.358 49.57 588.098 48.88 589.538 47.44C590.978 46.06 591.668 44.38 591.608 42.4C591.668 40.48 590.978 38.86 589.538 37.54C588.098 36.1 586.358 35.41 584.318 35.47H540.668L543.908 25.93H586.838C591.938 25.63 596.288 27.25 599.888 30.79C603.128 33.79 604.748 37.51 604.748 41.95C604.928 46.87 603.278 51.07 599.798 54.55C596.198 58.09 591.878 59.74 586.838 59.5H557.588C555.608 59.5 553.898 60.19 552.458 61.57C550.958 62.83 550.208 64.48 550.208 66.52V72.1H604.838L601.508 82ZM667.098 82H639.468C633.708 82.3 628.758 80.47 624.618 76.51C620.958 73.09 619.128 68.89 619.128 63.91V44.02C619.068 38.98 620.898 34.75 624.618 31.33C628.818 27.43 633.768 25.63 639.468 25.93H667.098C672.858 25.63 677.838 27.43 682.038 31.33C685.698 34.69 687.498 38.86 687.438 43.84V64.09C687.438 69.01 685.608 73.15 681.948 76.51C677.808 80.47 672.858 82.3 667.098 82ZM662.958 35.47H643.698C640.578 35.41 637.818 36.37 635.418 38.35C633.138 40.45 631.998 43.03 631.998 46.09V61.48C631.878 64.6 633.018 67.18 635.418 69.22C637.818 71.2 640.578 72.16 643.698 72.1H662.958C666.138 72.16 668.928 71.17 671.328 69.13C673.668 67.09 674.778 64.51 674.658 61.39V46.18C674.778 43.06 673.668 40.45 671.328 38.35C668.928 36.31 666.138 35.35 662.958 35.47ZM765.758 82H701.768V66.25C701.828 61.51 703.628 57.55 707.168 54.37C710.708 51.13 714.908 49.51 719.768 49.51H748.568C750.608 49.57 752.348 48.88 753.788 47.44C755.228 46.06 755.918 44.38 755.858 42.4C755.918 40.48 755.228 38.86 753.788 37.54C752.348 36.1 750.608 35.41 748.568 35.47H704.918L708.158 25.93H751.088C756.188 25.63 760.538 27.25 764.138 30.79C767.378 33.79 768.998 37.51 768.998 41.95C769.178 46.87 767.528 51.07 764.048 54.55C760.448 58.09 756.128 59.74 751.088 59.5H721.838C719.858 59.5 718.148 60.19 716.708 61.57C715.208 62.83 714.458 64.48 714.458 66.52V72.1H769.088L765.758 82ZM829.278 82H783.198L786.528 71.92H827.298C829.518 71.98 831.408 71.23 832.968 69.67C834.408 68.17 835.128 66.4 835.128 64.36C835.128 62.26 834.408 60.49 832.968 59.05C831.408 57.49 829.518 56.74 827.298 56.8H783.918V25.93H844.398L841.068 35.38H796.608V47.08L829.278 47.17C834.498 46.93 838.998 48.61 842.778 52.21C846.198 55.57 847.908 59.62 847.908 64.36C847.968 69.22 846.258 73.36 842.778 76.78C839.058 80.5 834.558 82.24 829.278 82Z" fill="white"/>
<path d="M65.28 26.38L64.9086 25.4515L64.28 25.703V26.38H65.28ZM75.18 22.42H76.18V20.943L74.8086 21.4915L75.18 22.42ZM75.18 82L74.8086 82.9285L76.18 83.477V82H75.18ZM65.28 78.04H64.28V78.717L64.9086 78.9685L65.28 78.04ZM65.28 56.17H66.28V55.17H65.28V56.17ZM25.5 56.17V55.17H24.5V56.17H25.5ZM25.5 78.04L25.8714 78.9685L26.5 78.717V78.04H25.5ZM15.6 82H14.6V83.477L15.9714 82.9285L15.6 82ZM15.6 22.42L15.9714 21.4915L14.6 20.943V22.42H15.6ZM25.5 26.38H26.5V25.703L25.8714 25.4515L25.5 26.38ZM25.5 48.25H24.5V49.25H25.5V48.25ZM65.28 48.25V49.25H66.28V48.25H65.28ZM65.6514 27.3085L75.5514 23.3485L74.8086 21.4915L64.9086 25.4515L65.6514 27.3085ZM74.18 22.42V82H76.18V22.42H74.18ZM75.5514 81.0715L65.6514 77.1115L64.9086 78.9685L74.8086 82.9285L75.5514 81.0715ZM66.28 78.04V56.17H64.28V78.04H66.28ZM65.28 55.17H25.5V57.17H65.28V55.17ZM24.5 56.17V78.04H26.5V56.17H24.5ZM25.1286 77.1115L15.2286 81.0715L15.9714 82.9285L25.8714 78.9685L25.1286 77.1115ZM16.6 82V22.42H14.6V82H16.6ZM15.2286 23.3485L25.1286 27.3085L25.8714 25.4515L15.9714 21.4915L15.2286 23.3485ZM24.5 26.38V48.25H26.5V26.38H24.5ZM25.5 49.25H65.28V47.25H25.5V49.25ZM66.28 48.25V26.38H64.28V48.25H66.28ZM140.537 42.13L141.318 41.5053L141.269 41.4438L141.21 41.3908L140.537 42.13ZM143.867 53.29L142.872 53.1891L142.867 53.2394V53.29H143.867ZM143.867 82V83H144.867V82H143.867ZM132.527 82H131.527V83H132.527V82ZM132.527 76.51H133.527V74.4948L131.922 75.7136L132.527 76.51ZM116.597 82V83.0001L116.607 82.9999L116.597 82ZM103.367 82V81H103.352L103.337 81.0005L103.367 82ZM93.1069 77.95L93.8065 77.2355L93.7977 77.2268L93.7886 77.2184L93.1069 77.95ZM89.1469 68.86H90.1469V68.8519L90.1467 68.8439L89.1469 68.86ZM93.1069 59.41L93.7977 60.133L93.8246 60.1073L93.8494 60.0798L93.1069 59.41ZM103.457 54.64V53.64H103.442L103.428 53.6404L103.457 54.64ZM132.527 54.64V55.64H133.527V54.64H132.527ZM130.457 49.6L129.75 50.3071L129.766 50.3232L129.783 50.3385L130.457 49.6ZM125.327 47.53V48.53H125.342L125.357 48.5295L125.327 47.53ZM92.0269 47.53L91.061 47.2711L90.7235 48.53H92.0269V47.53ZM94.3669 38.8V37.8H93.5996L93.401 38.5411L94.3669 38.8ZM130.997 38.8V39.8H131.03L131.062 39.7979L130.997 38.8ZM132.527 68.05L133.22 68.771L133.527 68.4759V68.05H132.527ZM132.527 61.93H133.527V60.93H132.527V61.93ZM102.467 73.09L101.727 73.7627L101.758 73.7964L101.791 73.8272L102.467 73.09ZM116.057 75.07V76.07H116.076L116.095 76.0693L116.057 75.07ZM139.756 42.7547C142.235 45.8537 143.265 49.3141 142.872 53.1891L144.862 53.3909C145.309 48.9859 144.119 45.0063 141.318 41.5053L139.756 42.7547ZM142.867 53.29V82H144.867V53.29H142.867ZM143.867 81H132.527V83H143.867V81ZM133.527 82V76.51H131.527V82H133.527ZM131.922 75.7136C127.351 79.1853 122.249 80.9423 116.587 81.0001L116.607 82.9999C122.705 82.9377 128.223 81.0347 133.132 77.3064L131.922 75.7136ZM116.597 81H103.367V83H116.597V81ZM103.337 81.0005C99.6538 81.1121 96.4959 79.8689 93.8065 77.2355L92.4072 78.6645C95.4778 81.6711 99.1599 83.1279 103.397 82.9995L103.337 81.0005ZM93.7886 77.2184C91.3511 74.947 90.1469 72.1818 90.1469 68.86H88.1469C88.1469 72.7382 89.5827 76.033 92.4251 78.6816L93.7886 77.2184ZM90.1467 68.8439C90.0913 65.4037 91.2984 62.5213 93.7977 60.133L92.416 58.687C89.5154 61.4587 88.0825 64.8763 88.147 68.8761L90.1467 68.8439ZM93.8494 60.0798C96.4255 57.2237 99.6172 55.7517 103.486 55.6396L103.428 53.6404C99.0166 53.7683 95.3082 55.4763 92.3643 58.7402L93.8494 60.0798ZM103.457 55.64H132.527V53.64H103.457V55.64ZM133.527 54.64V54.28H131.527V54.64H133.527ZM133.527 54.28C133.527 52.1375 132.718 50.31 131.131 48.8615L129.783 50.3385C130.956 51.41 131.527 52.7025 131.527 54.28H133.527ZM131.164 48.8929C129.535 47.2641 127.561 46.4618 125.297 46.5305L125.357 48.5295C127.053 48.4782 128.499 49.0559 129.75 50.3071L131.164 48.8929ZM125.327 46.53H92.0269V48.53H125.327V46.53ZM92.9928 47.7889L95.3328 39.0589L93.401 38.5411L91.061 47.2711L92.9928 47.7889ZM94.3669 39.8H130.997V37.8H94.3669V39.8ZM131.062 39.7979C134.452 39.5756 137.365 40.5931 139.863 42.8692L141.21 41.3908C138.309 38.7469 134.861 37.5444 130.931 37.8021L131.062 39.7979ZM133.527 68.05V61.93H131.527V68.05H133.527ZM132.527 60.93H107.327V62.93H132.527V60.93ZM107.327 60.93C105.201 60.93 103.357 61.6961 101.85 63.2029L103.264 64.6171C104.397 63.4839 105.733 62.93 107.327 62.93V60.93ZM101.85 63.2029C100.4 64.6526 99.6669 66.4378 99.6669 68.5H101.667C101.667 66.9622 102.194 65.6874 103.264 64.6171L101.85 63.2029ZM99.6669 68.5C99.6669 70.4956 100.364 72.2637 101.727 73.7627L103.207 72.4173C102.169 71.2763 101.667 69.9844 101.667 68.5H99.6669ZM101.791 73.8272C103.412 75.313 105.332 76.07 107.507 76.07V74.07C105.842 74.07 104.402 73.507 103.143 72.3528L101.791 73.8272ZM107.507 76.07H116.057V74.07H107.507V76.07ZM116.095 76.0693C122.702 75.82 128.424 73.3797 133.22 68.771L131.834 67.329C127.39 71.6003 122.132 73.84 116.019 74.0707L116.095 76.0693ZM178.989 72.82V71.82H178.977L178.965 71.8203L178.989 72.82ZM205.629 72.82L206.581 72.5122L206.357 71.82H205.629V72.82ZM208.599 82V83H209.974L209.551 81.6922L208.599 82ZM175.479 82V80.9999L175.467 81.0001L175.479 82ZM163.149 77.23L163.831 76.4981L163.813 76.4811L163.794 76.4651L163.149 77.23ZM157.929 66.16H156.929L156.929 66.1733L157.929 66.16ZM163.149 43.57L163.787 44.3404L163.813 44.319L163.837 44.296L163.149 43.57ZM175.389 38.8L175.377 39.8H175.389V38.8ZM208.599 38.8L209.547 39.119L209.991 37.8H208.599V38.8ZM205.539 47.89V48.89H206.258L206.487 48.209L205.539 47.89ZM178.989 47.89L178.942 48.8889L178.966 48.89H178.989V47.89ZM172.329 50.23L172.988 50.9826L172.329 50.23ZM169.629 56.62H170.629V56.5968L170.628 56.5735L169.629 56.62ZM169.629 64.18L170.628 64.2265L170.629 64.2032V64.18H169.629ZM172.329 70.57L171.671 71.3226L171.69 71.3395L171.711 71.3555L172.329 70.57ZM178.989 73.82H205.629V71.82H178.989V73.82ZM204.678 73.1278L207.648 82.3078L209.551 81.6922L206.581 72.5122L204.678 73.1278ZM208.599 81H175.479V83H208.599V81ZM175.467 81.0001C170.985 81.0568 167.123 79.5634 163.831 76.4981L162.468 77.9619C166.136 81.3766 170.494 83.0632 175.492 82.9999L175.467 81.0001ZM163.794 76.4651C160.597 73.7735 158.985 70.3586 158.929 66.1467L156.929 66.1733C156.993 70.9614 158.861 74.9265 162.505 77.9949L163.794 76.4651ZM158.929 66.16V54.64H156.929V66.16H158.929ZM158.929 54.64C158.929 50.4393 160.535 47.0313 163.787 44.3404L162.512 42.7996C158.803 45.8687 156.929 49.8407 156.929 54.64H158.929ZM163.837 44.296C167.067 41.2362 170.895 39.7432 175.377 39.7999L175.402 37.8001C170.404 37.7368 166.072 39.4238 162.462 42.844L163.837 44.296ZM175.389 39.8H208.599V37.8H175.389V39.8ZM207.652 38.481L204.592 47.571L206.487 48.209L209.547 39.119L207.652 38.481ZM205.539 46.89H178.989V48.89H205.539V46.89ZM179.037 46.8911C176.255 46.7587 173.783 47.6292 171.671 49.4774L172.988 50.9826C174.716 49.4708 176.683 48.7813 178.942 48.8889L179.037 46.8911ZM171.671 49.4774C169.518 51.3609 168.497 53.7866 168.63 56.6665L170.628 56.5735C170.522 54.2934 171.3 52.4591 172.988 50.9826L171.671 49.4774ZM168.629 56.62V64.18H170.629V56.62H168.629ZM168.63 64.1335C168.497 67.0134 169.518 69.4391 171.671 71.3226L172.988 69.8174C171.3 68.3409 170.522 66.5066 170.628 64.2265L168.63 64.1335ZM171.711 71.3555C173.869 73.0558 176.315 73.8855 179.014 73.8197L178.965 71.8203C176.744 71.8745 174.75 71.2042 172.948 69.7845L171.711 71.3555ZM249.435 58.96L248.745 58.2362L247.992 58.9538L248.739 59.6779L249.435 58.96ZM273.195 82V83H275.663L273.891 81.2821L273.195 82ZM258.165 82L257.449 82.6981L257.743 83H258.165V82ZM240.705 64.09L241.421 63.3919L241.126 63.09H240.705V64.09ZM233.865 64.09V63.09H232.865V64.09H233.865ZM233.865 82V83H234.865V82H233.865ZM221.625 82H220.625V83H221.625V82ZM221.625 29.8L221.108 28.9436L220.625 29.2352V29.8H221.625ZM233.865 22.42H234.865V20.6493L233.348 21.5636L233.865 22.42ZM233.865 55.27H232.865V56.27H233.865V55.27ZM239.625 55.27V56.27H240.045L240.34 55.9692L239.625 55.27ZM255.735 38.8V37.8H255.314L255.02 38.1007L255.735 38.8ZM270.585 38.8L271.275 39.5238L273.083 37.8H270.585V38.8ZM248.739 59.6779L272.499 82.7179L273.891 81.2821L250.131 58.2421L248.739 59.6779ZM273.195 81H258.165V83H273.195V81ZM258.881 81.3019L241.421 63.3919L239.989 64.7881L257.449 82.6981L258.881 81.3019ZM240.705 63.09H233.865V65.09H240.705V63.09ZM232.865 64.09V82H234.865V64.09H232.865ZM233.865 81H221.625V83H233.865V81ZM222.625 82V29.8H220.625V82H222.625ZM222.141 30.6564L234.381 23.2764L233.348 21.5636L221.108 28.9436L222.141 30.6564ZM232.865 22.42V55.27H234.865V22.42H232.865ZM233.865 56.27H239.625V54.27H233.865V56.27ZM240.34 55.9692L256.45 39.4992L255.02 38.1007L238.91 54.5707L240.34 55.9692ZM255.735 39.8H270.585V37.8H255.735V39.8ZM269.895 38.0762L248.745 58.2362L250.125 59.6838L271.275 39.5238L269.895 38.0762ZM283.981 22.42L284.352 21.4915L282.981 20.943V22.42H283.981ZM293.881 26.38H294.881V25.703L294.252 25.4515L293.881 26.38ZM293.881 82L293.509 82.9285L294.881 83.477V82H293.881ZM283.981 78.04H282.981V78.717L283.609 78.9685L283.981 78.04ZM283.609 23.3485L293.509 27.3085L294.252 25.4515L284.352 21.4915L283.609 23.3485ZM292.881 26.38V82H294.881V26.38H292.881ZM294.252 81.0715L284.352 77.1115L283.609 78.9685L293.509 82.9285L294.252 81.0715ZM284.981 78.04V22.42H282.981V78.04H284.981ZM354.671 43.84L355.417 43.174L355.417 43.1732L354.671 43.84ZM359.351 55.63H360.351V55.6167L360.351 55.6033L359.351 55.63ZM359.351 82V83H360.351V82H359.351ZM348.101 82H347.101V83H348.101V82ZM348.101 56.26L347.103 56.2113L347.101 56.2356V56.26H348.101ZM345.581 50.05L346.264 49.3189L346.258 49.3134L346.252 49.3079L345.581 50.05ZM339.101 47.71V48.71H339.126L339.15 48.7088L339.101 47.71ZM333.161 47.71V46.71H333.153L333.145 46.7101L333.161 47.71ZM324.071 51.67L323.348 50.9799L324.071 51.67ZM320.471 60.94H321.471V60.9317L321.471 60.9233L320.471 60.94ZM320.471 82V83H321.471V82H320.471ZM309.311 82H308.311V83H309.311V82ZM309.311 47.71L308.691 46.9261L308.311 47.2264V47.71H309.311ZM320.561 38.8H321.561V36.7324L319.941 38.0161L320.561 38.8ZM320.561 46.45H319.561V49.5705L321.375 47.0312L320.561 46.45ZM322.361 43.93L323.175 44.5112L323.201 44.4752L323.223 44.437L322.361 43.93ZM324.611 41.23L325.266 41.9857L324.611 41.23ZM327.671 39.43L328.017 40.3683L327.671 39.43ZM342.521 38.8V39.8H342.561L342.601 39.7968L342.521 38.8ZM347.021 39.16L346.788 40.1324L347.021 39.16ZM351.161 40.96L350.607 41.792L350.629 41.8071L350.653 41.8209L351.161 40.96ZM353.926 44.506C356.768 47.6897 358.238 51.3932 358.352 55.6567L360.351 55.6033C360.225 50.8668 358.575 46.7103 355.417 43.174L353.926 44.506ZM358.351 55.63V82H360.351V55.63H358.351ZM359.351 81H348.101V83H359.351V81ZM349.101 82V56.26H347.101V82H349.101ZM349.1 56.3087C349.235 53.555 348.279 51.1997 346.264 49.3189L344.899 50.7811C346.484 52.2603 347.208 54.045 347.103 56.2113L349.1 56.3087ZM346.252 49.3079C344.199 47.4541 341.782 46.578 339.053 46.7112L339.15 48.7088C341.341 48.602 343.244 49.2859 344.911 50.7921L346.252 49.3079ZM339.101 46.71H333.161V48.71H339.101V46.71ZM333.145 46.7101C329.28 46.7745 325.995 48.204 323.348 50.9799L324.795 52.3601C327.068 49.976 329.843 48.7654 333.178 48.7099L333.145 46.7101ZM323.348 50.9799C320.704 53.7522 319.407 57.0969 319.472 60.9567L321.471 60.9233C321.416 57.5831 322.519 54.7478 324.795 52.3601L323.348 50.9799ZM319.471 60.94V82H321.471V60.94H319.471ZM320.471 81H309.311V83H320.471V81ZM310.311 82V47.71H308.311V82H310.311ZM309.932 48.4939L321.182 39.5839L319.941 38.0161L308.691 46.9261L309.932 48.4939ZM319.561 38.8V46.45H321.561V38.8H319.561ZM321.375 47.0312L323.175 44.5112L321.548 43.3488L319.748 45.8688L321.375 47.0312ZM323.223 44.437C323.768 43.5112 324.448 42.695 325.266 41.9857L323.957 40.4743C322.975 41.3249 322.155 42.3088 321.5 43.423L323.223 44.437ZM325.266 41.9857C326.073 41.2863 326.988 40.7475 328.017 40.3683L327.326 38.4917C326.075 38.9525 324.95 39.6137 323.957 40.4743L325.266 41.9857ZM328.017 40.3683C329.048 39.9886 330.101 39.8 331.181 39.8V37.8C329.862 37.8 328.575 38.0314 327.326 38.4917L328.017 40.3683ZM331.181 39.8H342.521V37.8H331.181V39.8ZM342.601 39.7968C343.994 39.6854 345.388 39.7963 346.788 40.1324L347.255 38.1876C345.655 37.8037 344.049 37.6746 342.442 37.8032L342.601 39.7968ZM346.788 40.1324C348.176 40.4654 349.447 41.0186 350.607 41.792L351.716 40.1279C350.356 39.2214 348.867 38.5746 347.255 38.1876L346.788 40.1324ZM350.653 41.8209C351.885 42.5489 352.975 43.4434 353.926 44.5068L355.417 43.1732C354.328 41.9566 353.078 40.9311 351.67 40.0991L350.653 41.8209ZM416.97 22.42L417.49 21.5657L415.97 20.6412V22.42H416.97ZM427.77 28.99H428.77V28.4278L428.29 28.1357L427.77 28.99ZM427.77 82V83H428.77V82H427.77ZM416.97 82L415.971 82.013L415.983 83H416.97V82ZM416.88 75.07L417.88 75.057L415.97 74.6562L416.88 75.07ZM414.36 78.67L415.068 79.3771L414.36 78.67ZM410.76 81.1L411.139 82.0255L411.149 82.0214L411.159 82.0171L410.76 81.1ZM406.62 82V83H406.641L406.662 82.9991L406.62 82ZM378 77.59L378.672 76.8494L378.656 76.8346L378.639 76.8206L378 77.59ZM378.09 43.21L378.713 43.9923L378.75 43.9632L378.784 43.9308L378.09 43.21ZM389.34 38.8L389.327 39.8H389.34V38.8ZM408.42 38.8L408.487 37.8022L408.454 37.8H408.42V38.8ZM416.97 43.66L416.151 44.2335L417.97 46.8324V43.66H416.97ZM414.18 49.96L413.473 50.6671L414.18 49.96ZM392.76 47.17L392.709 48.1687L392.735 48.17H392.76V47.17ZM386.55 49.33L387.203 50.0874L387.205 50.0857L386.55 49.33ZM384.03 55.09H385.03V55.0772L385.03 55.0644L384.03 55.09ZM384.03 65.53L385.029 65.5799L385.03 65.555V65.53H384.03ZM386.55 71.38L387.191 70.6118L386.55 71.38ZM392.76 73.54V72.54H392.748L392.735 72.5403L392.76 73.54ZM414.27 70.84L414.978 71.5471L414.27 70.84ZM416.451 23.2743L427.251 29.8443L428.29 28.1357L417.49 21.5657L416.451 23.2743ZM426.77 28.99V82H428.77V28.99H426.77ZM427.77 81H416.97V83H427.77V81ZM417.97 81.987L417.88 75.057L415.881 75.083L415.971 82.013L417.97 81.987ZM415.97 74.6562C415.422 75.8613 414.653 76.9631 413.653 77.9629L415.068 79.3771C416.228 78.2169 417.139 76.9187 417.791 75.4838L415.97 74.6562ZM413.653 77.9629C412.726 78.8904 411.632 79.6308 410.362 80.1829L411.159 82.0171C412.649 81.3692 413.955 80.4896 415.068 79.3771L413.653 77.9629ZM410.382 80.1745C409.17 80.6701 407.904 80.9456 406.579 81.0009L406.662 82.9991C408.217 82.9344 409.711 82.6099 411.139 82.0255L410.382 80.1745ZM406.62 81H389.43V83H406.62V81ZM389.43 81C385.299 81 381.728 79.6223 378.672 76.8494L377.328 78.3306C380.753 81.4377 384.802 83 389.43 83V81ZM378.639 76.8206C375.689 74.3709 374.23 71.2632 374.23 67.42H372.23C372.23 71.8568 373.952 75.5291 377.362 78.3594L378.639 76.8206ZM374.23 67.42V53.29H372.23V67.42H374.23ZM374.23 53.29C374.23 49.4547 375.712 46.3826 378.713 43.9923L377.468 42.4277C373.989 45.1974 372.23 48.8453 372.23 53.29H374.23ZM378.784 43.9308C381.711 41.1157 385.206 39.7435 389.327 39.7999L389.354 37.8001C384.715 37.7365 380.71 39.3043 377.397 42.4892L378.784 43.9308ZM389.34 39.8H408.42V37.8H389.34V39.8ZM408.354 39.7978C411.647 40.0173 414.222 41.4773 416.151 44.2335L417.79 43.0865C415.519 39.8427 412.394 38.0627 408.487 37.8022L408.354 39.7978ZM417.97 43.66V22.42H415.97V43.66H417.97ZM417.97 64.27V56.71H415.97V64.27H417.97ZM417.97 56.71C417.97 53.8059 416.936 51.3012 414.888 49.2529L413.473 50.6671C415.145 52.3388 415.97 54.3341 415.97 56.71H417.97ZM414.888 49.2529C412.839 47.2046 410.335 46.17 407.43 46.17V48.17C409.806 48.17 411.802 48.9954 413.473 50.6671L414.888 49.2529ZM407.43 46.17H392.76V48.17H407.43V46.17ZM392.812 46.1713C390.209 46.0378 387.887 46.8483 385.896 48.5743L387.205 50.0857C388.814 48.6917 390.632 48.0622 392.709 48.1687L392.812 46.1713ZM385.898 48.5726C383.925 50.2727 382.963 52.4824 383.031 55.1156L385.03 55.0644C384.978 53.0176 385.695 51.3873 387.203 50.0874L385.898 48.5726ZM383.03 55.09V65.53H385.03V55.09H383.03ZM383.032 65.4801C382.896 68.1845 383.862 70.441 385.91 72.1482L387.191 70.6118C385.639 69.319 384.924 67.6755 385.029 65.5799L383.032 65.4801ZM385.91 72.1482C387.897 73.8035 390.203 74.6059 392.786 74.5397L392.735 72.5403C390.638 72.5941 388.804 71.9565 387.191 70.6118L385.91 72.1482ZM392.76 74.54H407.79V72.54H392.76V74.54ZM407.79 74.54C410.579 74.54 412.992 73.5325 414.978 71.5471L413.563 70.1329C411.949 71.7475 410.042 72.54 407.79 72.54V74.54ZM414.978 71.5471C416.968 69.5567 417.97 67.1112 417.97 64.27H415.97C415.97 66.5888 415.173 68.5233 413.563 70.1329L414.978 71.5471ZM454.768 82V83H455.768V82H454.768ZM443.338 82H442.338V83H443.338V82ZM443.338 38.8V37.8H442.338V38.8H443.338ZM454.768 38.8H455.768V37.8H454.768V38.8ZM444.958 32.23L444.232 32.9177L444.25 32.9374L444.27 32.9559L444.958 32.23ZM444.958 24.13L445.665 24.8371V24.8371L444.958 24.13ZM453.058 24.13L452.332 24.8177L452.35 24.8374L452.37 24.856L453.058 24.13ZM454.768 81H443.338V83H454.768V81ZM444.338 82V38.8H442.338V82H444.338ZM443.338 39.8H454.768V37.8H443.338V39.8ZM453.768 38.8V82H455.768V38.8H453.768ZM452.351 31.5229C451.47 32.4031 450.38 32.85 449.008 32.85V34.85C450.875 34.85 452.485 34.2169 453.765 32.9371L452.351 31.5229ZM449.008 32.85C447.705 32.85 446.601 32.4094 445.645 31.504L444.27 32.9559C445.594 34.2106 447.19 34.85 449.008 34.85V32.85ZM445.684 31.5423C444.778 30.5866 444.338 29.4822 444.338 28.18H442.338C442.338 29.9977 442.977 31.5934 444.232 32.9177L445.684 31.5423ZM444.338 28.18C444.338 26.8074 444.785 25.7173 445.665 24.8371L444.251 23.4229C442.971 24.7027 442.338 26.3126 442.338 28.18H444.338ZM445.665 24.8371C446.624 23.8776 447.723 23.42 449.008 23.42V21.42C447.173 21.42 445.571 22.1024 444.251 23.4229L445.665 24.8371ZM449.008 23.42C450.363 23.42 451.447 23.8841 452.332 24.8177L453.784 23.4423C452.508 22.0959 450.892 21.42 449.008 21.42V23.42ZM452.37 24.856C453.304 25.7405 453.768 26.8248 453.768 28.18H455.768C455.768 26.2952 455.092 24.6795 453.745 23.404L452.37 24.856ZM453.768 28.18C453.768 29.465 453.31 30.5634 452.351 31.5229L453.765 32.9371C455.085 31.6166 455.768 30.015 455.768 28.18H453.768ZM519.855 42.13L520.636 41.5053L520.587 41.4438L520.529 41.3908L519.855 42.13ZM523.185 53.29L522.19 53.1891L522.185 53.2394V53.29H523.185ZM523.185 82V83H524.185V82H523.185ZM511.845 82H510.845V83H511.845V82ZM511.845 76.51H512.845V74.4948L511.24 75.7136L511.845 76.51ZM495.915 82V83.0001L495.925 82.9999L495.915 82ZM482.685 82V81H482.67L482.655 81.0005L482.685 82ZM472.425 77.95L473.125 77.2355L473.116 77.2268L473.107 77.2184L472.425 77.95ZM468.465 68.86H469.465V68.8519L469.465 68.8439L468.465 68.86ZM472.425 59.41L473.116 60.133L473.143 60.1073L473.168 60.0798L472.425 59.41ZM482.775 54.64V53.64H482.761L482.746 53.6404L482.775 54.64ZM511.845 54.64V55.64H512.845V54.64H511.845ZM509.775 49.6L509.068 50.3071L509.084 50.3232L509.101 50.3385L509.775 49.6ZM504.645 47.53V48.53H504.66L504.676 48.5295L504.645 47.53ZM471.345 47.53L470.379 47.2711L470.042 48.53H471.345V47.53ZM473.685 38.8V37.8H472.918L472.719 38.5411L473.685 38.8ZM510.315 38.8V39.8H510.348L510.381 39.7979L510.315 38.8ZM511.845 68.05L512.538 68.771L512.845 68.4759V68.05H511.845ZM511.845 61.93H512.845V60.93H511.845V61.93ZM481.785 73.09L481.045 73.7627L481.076 73.7964L481.109 73.8272L481.785 73.09ZM495.375 75.07V76.07H495.394L495.413 76.0693L495.375 75.07ZM519.074 42.7547C521.554 45.8537 522.583 49.3141 522.19 53.1891L524.18 53.3909C524.627 48.9859 523.437 45.0063 520.636 41.5053L519.074 42.7547ZM522.185 53.29V82H524.185V53.29H522.185ZM523.185 81H511.845V83H523.185V81ZM512.845 82V76.51H510.845V82H512.845ZM511.24 75.7136C506.669 79.1853 501.567 80.9423 495.905 81.0001L495.925 82.9999C502.023 82.9377 507.541 81.0347 512.45 77.3064L511.24 75.7136ZM495.915 81H482.685V83H495.915V81ZM482.655 81.0005C478.972 81.1121 475.814 79.8689 473.125 77.2355L471.726 78.6645C474.796 81.6711 478.478 83.1279 482.716 82.9995L482.655 81.0005ZM473.107 77.2184C470.669 74.947 469.465 72.1818 469.465 68.86H467.465C467.465 72.7382 468.901 76.033 471.743 78.6816L473.107 77.2184ZM469.465 68.8439C469.41 65.4037 470.617 62.5213 473.116 60.133L471.734 58.687C468.834 61.4587 467.401 64.8763 467.465 68.8761L469.465 68.8439ZM473.168 60.0798C475.744 57.2237 478.936 55.7517 482.804 55.6396L482.746 53.6404C478.335 53.7683 474.627 55.4763 471.683 58.7402L473.168 60.0798ZM482.775 55.64H511.845V53.64H482.775V55.64ZM512.845 54.64V54.28H510.845V54.64H512.845ZM512.845 54.28C512.845 52.1375 512.036 50.31 510.449 48.8615L509.101 50.3385C510.275 51.41 510.845 52.7025 510.845 54.28H512.845ZM510.482 48.8929C508.854 47.2641 506.879 46.4618 504.615 46.5305L504.676 48.5295C506.371 48.4782 507.817 49.0559 509.068 50.3071L510.482 48.8929ZM504.645 46.53H471.345V48.53H504.645V46.53ZM472.311 47.7889L474.651 39.0589L472.719 38.5411L470.379 47.2711L472.311 47.7889ZM473.685 39.8H510.315V37.8H473.685V39.8ZM510.381 39.7979C513.771 39.5756 516.684 40.5931 519.182 42.8692L520.529 41.3908C517.627 38.7469 514.18 37.5444 510.25 37.8021L510.381 39.7979ZM512.845 68.05V61.93H510.845V68.05H512.845ZM511.845 60.93H486.645V62.93H511.845V60.93ZM486.645 60.93C484.519 60.93 482.675 61.6961 481.168 63.2029L482.582 64.6171C483.716 63.4839 485.052 62.93 486.645 62.93V60.93ZM481.168 63.2029C479.718 64.6526 478.985 66.4378 478.985 68.5H480.985C480.985 66.9622 481.512 65.6874 482.582 64.6171L481.168 63.2029ZM478.985 68.5C478.985 70.4956 479.683 72.2637 481.045 73.7627L482.525 72.4173C481.488 71.2763 480.985 69.9844 480.985 68.5H478.985ZM481.109 73.8272C482.73 75.313 484.65 76.07 486.825 76.07V74.07C485.16 74.07 483.72 73.507 482.461 72.3528L481.109 73.8272ZM486.825 76.07H495.375V74.07H486.825V76.07ZM495.413 76.0693C502.02 75.82 507.743 73.3797 512.538 68.771L511.152 67.329C506.708 71.6003 501.451 73.84 495.338 74.0707L495.413 76.0693ZM601.508 82V83H602.226L602.456 82.3188L601.508 82ZM537.518 82H536.518V83H537.518V82ZM537.518 66.25L536.518 66.2373V66.25H537.518ZM542.918 54.37L543.586 55.114L543.593 55.1077L542.918 54.37ZM584.318 49.51L584.347 48.5104L584.332 48.51H584.318V49.51ZM589.538 47.44L588.846 46.718L588.838 46.7254L588.831 46.7329L589.538 47.44ZM591.608 42.4L590.608 42.3688L590.607 42.3995L590.608 42.4303L591.608 42.4ZM589.538 37.54L588.831 38.2471L588.846 38.2625L588.862 38.2772L589.538 37.54ZM584.318 35.47V36.47H584.332L584.347 36.4696L584.318 35.47ZM540.668 35.47L539.721 35.1484L539.272 36.47H540.668V35.47ZM543.908 25.93V24.93H543.191L542.961 25.6084L543.908 25.93ZM586.838 25.93V26.93H586.867L586.896 26.9283L586.838 25.93ZM599.888 30.79L599.187 31.503L599.197 31.5136L599.208 31.5238L599.888 30.79ZM604.748 41.95H603.748V41.9683L603.748 41.9866L604.748 41.95ZM599.798 54.55L600.499 55.2631L600.505 55.2571L599.798 54.55ZM586.838 59.5L586.885 58.5011L586.862 58.5H586.838V59.5ZM552.458 61.57L553.101 62.3357L553.126 62.3146L553.15 62.292L552.458 61.57ZM550.208 72.1H549.208V73.1H550.208V72.1ZM604.838 72.1L605.786 72.4188L606.229 71.1H604.838V72.1ZM601.508 81H537.518V83H601.508V81ZM538.518 82V66.25H536.518V82H538.518ZM538.518 66.2627C538.574 61.8033 540.253 58.108 543.586 55.1139L542.249 53.6261C538.503 56.992 536.581 61.2167 536.518 66.2373L538.518 66.2627ZM543.593 55.1077C546.946 52.0388 550.904 50.51 555.518 50.51V48.51C550.411 48.51 545.97 50.2212 542.243 53.6323L543.593 55.1077ZM555.518 50.51H584.318V48.51H555.518V50.51ZM584.288 50.5096C586.603 50.5776 588.61 49.7823 590.245 48.1471L588.831 46.7329C587.586 47.9777 586.112 48.5624 584.347 48.5104L584.288 50.5096ZM590.23 48.162C591.872 46.5876 592.676 44.6349 592.607 42.3697L590.608 42.4303C590.66 44.1251 590.083 45.5324 588.846 46.718L590.23 48.162ZM592.607 42.4312C592.677 40.2146 591.864 38.3158 590.213 36.8028L588.862 38.2772C590.092 39.4042 590.659 40.7454 590.608 42.3688L592.607 42.4312ZM590.245 36.8329C588.61 35.1977 586.603 34.4024 584.288 34.4704L584.347 36.4696C586.112 36.4176 587.586 37.0023 588.831 38.2471L590.245 36.8329ZM584.318 34.47H540.668V36.47H584.318V34.47ZM541.615 35.7916L544.855 26.2516L542.961 25.6084L539.721 35.1484L541.615 35.7916ZM543.908 26.93H586.838V24.93H543.908V26.93ZM586.896 26.9283C591.718 26.6446 595.791 28.1639 599.187 31.503L600.589 30.077C596.785 26.3361 592.157 24.6153 586.779 24.9317L586.896 26.9283ZM599.208 31.5238C602.243 34.3333 603.748 37.7868 603.748 41.95H605.748C605.748 37.2332 604.013 33.2467 600.567 30.0562L599.208 31.5238ZM603.748 41.9866C603.918 46.629 602.374 50.5595 599.091 53.8429L600.505 55.2571C604.181 51.5805 605.937 47.111 605.747 41.9134L603.748 41.9866ZM599.097 53.837C595.695 57.1816 591.647 58.7279 586.885 58.5011L586.79 60.4989C592.109 60.7521 596.7 58.9984 600.499 55.263L599.097 53.837ZM586.838 58.5H557.588V60.5H586.838V58.5ZM557.588 58.5C555.348 58.5 553.391 59.2911 551.766 60.848L553.15 62.292C554.405 61.0889 555.868 60.5 557.588 60.5V58.5ZM551.815 60.8043C550.078 62.2631 549.208 64.1986 549.208 66.52H551.208C551.208 64.7614 551.838 63.3969 553.101 62.3357L551.815 60.8043ZM549.208 66.52V72.1H551.208V66.52H549.208ZM550.208 73.1H604.838V71.1H550.208V73.1ZM603.89 71.7812L600.56 81.6812L602.456 82.3188L605.786 72.4188L603.89 71.7812ZM667.098 82L667.15 81.0014L667.124 81H667.098V82ZM639.468 82V81H639.442L639.416 81.0014L639.468 82ZM624.618 76.51L625.309 75.7873L625.301 75.7793L624.618 76.51ZM619.128 44.02H620.128L620.128 44.0081L619.128 44.02ZM624.618 31.33L625.295 32.0662L625.299 32.0628L624.618 31.33ZM639.468 25.93L639.415 26.9286L639.442 26.93H639.468V25.93ZM667.098 25.93V26.93H667.124L667.15 26.9286L667.098 25.93ZM682.038 31.33L681.358 32.0628L681.362 32.0667L682.038 31.33ZM687.438 43.84L686.438 43.8279V43.84H687.438ZM681.948 76.51L681.272 75.7733L681.264 75.7803L681.257 75.7874L681.948 76.51ZM662.958 35.47V36.47H662.977L662.996 36.4693L662.958 35.47ZM643.698 35.47L643.679 36.4698L643.688 36.47H643.698V35.47ZM635.418 38.35L634.782 37.5786L634.761 37.596L634.741 37.6145L635.418 38.35ZM631.998 61.48L632.997 61.5184L632.998 61.4992V61.48H631.998ZM635.418 69.22L634.77 69.9819L634.776 69.9867L634.782 69.9914L635.418 69.22ZM643.698 72.1V71.1H643.688L643.679 71.1002L643.698 72.1ZM662.958 72.1L662.977 71.1002L662.967 71.1H662.958V72.1ZM671.328 69.13L671.976 69.892L671.985 69.8838L671.328 69.13ZM674.658 61.39H673.658V61.4092L673.659 61.4284L674.658 61.39ZM674.658 46.18L673.659 46.1416L673.658 46.1608V46.18H674.658ZM671.328 38.35L671.996 37.6058L671.986 37.5968L671.976 37.5881L671.328 38.35ZM667.098 81H639.468V83H667.098V81ZM639.416 81.0014C633.929 81.2871 629.249 79.5554 625.309 75.7874L623.927 77.2326C628.268 81.3846 633.487 83.3129 639.52 82.9986L639.416 81.0014ZM625.301 75.7793C621.842 72.5472 620.128 68.6112 620.128 63.91H618.128C618.128 69.1688 620.074 73.6328 623.935 77.2407L625.301 75.7793ZM620.128 63.91V44.02H618.128V63.91H620.128ZM620.128 44.0081C620.071 39.2528 621.783 35.2946 625.295 32.0662L623.941 30.5938C620.013 34.2054 618.065 38.7071 618.128 44.0319L620.128 44.0081ZM625.299 32.0628C629.301 28.3461 633.987 26.6429 639.415 26.9286L639.521 24.9314C633.549 24.6171 628.335 26.5139 623.938 30.5972L625.299 32.0628ZM639.468 26.93H667.098V24.93H639.468V26.93ZM667.15 26.9286C672.642 26.6426 677.357 28.3481 681.358 32.0628L682.719 30.5972C678.319 26.5119 673.074 24.6174 667.046 24.9314L667.15 26.9286ZM681.362 32.0667C684.812 35.2339 686.495 39.1314 686.438 43.8279L688.438 43.852C688.501 38.5886 686.584 34.1461 682.714 30.5933L681.362 32.0667ZM686.438 43.84V64.09H688.438V43.84H686.438ZM686.438 64.09C686.438 68.7268 684.728 72.6006 681.272 75.7733L682.624 77.2467C686.488 73.6994 688.438 69.2932 688.438 64.09H686.438ZM681.257 75.7874C677.318 79.5554 672.637 81.2871 667.15 81.0014L667.046 82.9986C673.079 83.3129 678.299 81.3846 682.639 77.2326L681.257 75.7874ZM662.958 34.47H643.698V36.47H662.958V34.47ZM643.717 34.4702C640.359 34.4056 637.367 35.4461 634.782 37.5786L636.054 39.1214C638.27 37.2939 640.797 36.4144 643.679 36.4698L643.717 34.4702ZM634.741 37.6145C632.258 39.901 630.998 42.7464 630.998 46.09H632.998C632.998 43.3136 634.018 40.999 636.096 39.0855L634.741 37.6145ZM630.998 46.09V61.48H632.998V46.09H630.998ZM630.999 61.4416C630.867 64.8713 632.139 67.7453 634.77 69.9819L636.066 68.4581C633.897 66.6147 632.889 64.3287 632.997 61.5184L630.999 61.4416ZM634.782 69.9914C637.367 72.1239 640.359 73.1644 643.717 73.0998L643.679 71.1002C640.797 71.1556 638.27 70.2761 636.054 68.4486L634.782 69.9914ZM643.698 73.1H662.958V71.1H643.698V73.1ZM662.939 73.0998C666.36 73.1644 669.388 72.0915 671.976 69.8919L670.68 68.3681C668.468 70.2485 665.916 71.1556 662.977 71.1002L662.939 73.0998ZM671.985 69.8838C674.555 67.6437 675.789 64.7717 675.657 61.3516L673.659 61.4284C673.767 64.2482 672.781 66.5363 670.671 68.3762L671.985 69.8838ZM675.658 61.39V46.18H673.658V61.39H675.658ZM675.657 46.2184C675.789 42.7988 674.555 39.9028 671.996 37.6058L670.66 39.0942C672.781 40.9972 673.767 43.3212 673.659 46.1416L675.657 46.2184ZM671.976 37.5881C669.383 35.3841 666.348 34.3414 662.92 34.4707L662.996 36.4693C665.929 36.3586 668.473 37.2359 670.68 39.1119L671.976 37.5881ZM765.758 82V83H766.476L766.706 82.3188L765.758 82ZM701.768 82H700.768V83H701.768V82ZM701.768 66.25L700.768 66.2373V66.25H701.768ZM707.168 54.37L707.836 55.114L707.843 55.1077L707.168 54.37ZM748.568 49.51L748.597 48.5104L748.582 48.51H748.568V49.51ZM753.788 47.44L753.096 46.718L753.088 46.7254L753.081 46.7329L753.788 47.44ZM755.858 42.4L754.858 42.3688L754.857 42.3995L754.858 42.4303L755.858 42.4ZM753.788 37.54L753.081 38.2471L753.096 38.2625L753.112 38.2772L753.788 37.54ZM748.568 35.47V36.47H748.582L748.597 36.4696L748.568 35.47ZM704.918 35.47L703.971 35.1484L703.522 36.47H704.918V35.47ZM708.158 25.93V24.93H707.441L707.211 25.6084L708.158 25.93ZM751.088 25.93V26.93H751.117L751.146 26.9283L751.088 25.93ZM764.138 30.79L763.437 31.503L763.447 31.5136L763.458 31.5238L764.138 30.79ZM768.998 41.95H767.998V41.9683L767.998 41.9866L768.998 41.95ZM764.048 54.55L764.749 55.2631L764.755 55.2571L764.048 54.55ZM751.088 59.5L751.135 58.5011L751.112 58.5H751.088V59.5ZM716.708 61.57L717.351 62.3357L717.376 62.3146L717.4 62.292L716.708 61.57ZM714.458 72.1H713.458V73.1H714.458V72.1ZM769.088 72.1L770.036 72.4188L770.479 71.1H769.088V72.1ZM765.758 81H701.768V83H765.758V81ZM702.768 82V66.25H700.768V82H702.768ZM702.768 66.2627C702.824 61.8033 704.503 58.108 707.836 55.1139L706.499 53.6261C702.753 56.992 700.831 61.2167 700.768 66.2373L702.768 66.2627ZM707.843 55.1077C711.196 52.0388 715.154 50.51 719.768 50.51V48.51C714.661 48.51 710.22 50.2212 706.493 53.6323L707.843 55.1077ZM719.768 50.51H748.568V48.51H719.768V50.51ZM748.538 50.5096C750.853 50.5776 752.86 49.7823 754.495 48.1471L753.081 46.7329C751.836 47.9777 750.362 48.5624 748.597 48.5104L748.538 50.5096ZM754.48 48.162C756.122 46.5876 756.926 44.6349 756.857 42.3697L754.858 42.4303C754.91 44.1251 754.333 45.5324 753.096 46.718L754.48 48.162ZM756.857 42.4312C756.927 40.2146 756.114 38.3158 754.463 36.8028L753.112 38.2772C754.342 39.4042 754.909 40.7454 754.858 42.3688L756.857 42.4312ZM754.495 36.8329C752.86 35.1977 750.853 34.4024 748.538 34.4704L748.597 36.4696C750.362 36.4176 751.836 37.0023 753.081 38.2471L754.495 36.8329ZM748.568 34.47H704.918V36.47H748.568V34.47ZM705.865 35.7916L709.105 26.2516L707.211 25.6084L703.971 35.1484L705.865 35.7916ZM708.158 26.93H751.088V24.93H708.158V26.93ZM751.146 26.9283C755.968 26.6446 760.041 28.1639 763.437 31.503L764.839 30.077C761.035 26.3361 756.407 24.6153 751.029 24.9317L751.146 26.9283ZM763.458 31.5238C766.493 34.3333 767.998 37.7868 767.998 41.95H769.998C769.998 37.2332 768.263 33.2467 764.817 30.0562L763.458 31.5238ZM767.998 41.9866C768.168 46.629 766.624 50.5595 763.341 53.8429L764.755 55.2571C768.431 51.5805 770.187 47.111 769.997 41.9134L767.998 41.9866ZM763.347 53.837C759.945 57.1816 755.897 58.7279 751.135 58.5011L751.04 60.4989C756.359 60.7521 760.95 58.9984 764.749 55.263L763.347 53.837ZM751.088 58.5H721.838V60.5H751.088V58.5ZM721.838 58.5C719.598 58.5 717.641 59.2911 716.016 60.848L717.4 62.292C718.655 61.0889 720.118 60.5 721.838 60.5V58.5ZM716.065 60.8043C714.328 62.2631 713.458 64.1986 713.458 66.52H715.458C715.458 64.7614 716.088 63.3969 717.351 62.3357L716.065 60.8043ZM713.458 66.52V72.1H715.458V66.52H713.458ZM714.458 73.1H769.088V71.1H714.458V73.1ZM768.14 71.7812L764.81 81.6812L766.706 82.3188L770.036 72.4188L768.14 71.7812ZM829.278 82L829.323 81.001L829.301 81H829.278V82ZM783.198 82L782.249 81.6863L781.815 83H783.198V82ZM786.528 71.92V70.92H785.805L785.578 71.6063L786.528 71.92ZM827.298 71.92L827.325 70.9204L827.312 70.92H827.298V71.92ZM832.968 69.67L833.675 70.3771L833.682 70.3699L833.689 70.3625L832.968 69.67ZM832.968 59.05L832.261 59.7571V59.7571L832.968 59.05ZM827.298 56.8V57.8H827.312L827.325 57.7996L827.298 56.8ZM783.918 56.8H782.918V57.8H783.918V56.8ZM783.918 25.93V24.93H782.918V25.93H783.918ZM844.398 25.93L845.341 26.2623L845.811 24.93H844.398V25.93ZM841.068 35.38V36.38H841.776L842.011 35.7123L841.068 35.38ZM796.608 35.38V34.38H795.608V35.38H796.608ZM796.608 47.08H795.608V48.0772L796.605 48.08L796.608 47.08ZM829.278 47.17L829.275 48.17L829.3 48.1701L829.324 48.1689L829.278 47.17ZM842.778 52.21L843.479 51.4967L843.473 51.4912L843.468 51.4859L842.778 52.21ZM847.908 64.36H846.908L846.908 64.3723L847.908 64.36ZM842.778 76.78L842.077 76.0667L842.071 76.0729L842.778 76.78ZM829.278 81H783.198V83H829.278V81ZM784.148 82.3137L787.478 72.2337L785.578 71.6063L782.249 81.6863L784.148 82.3137ZM786.528 72.92H827.298V70.92H786.528V72.92ZM827.271 72.9196C829.763 72.987 831.92 72.1327 833.675 70.3771L832.261 68.9629C830.897 70.3273 829.273 70.973 827.325 70.9204L827.271 72.9196ZM833.689 70.3625C835.304 68.6803 836.128 66.6636 836.128 64.36H834.128C834.128 66.1364 833.512 67.6597 832.247 68.9775L833.689 70.3625ZM836.128 64.36C836.128 62.004 835.309 59.9769 833.675 58.3429L832.261 59.7571C833.507 61.0031 834.128 62.516 834.128 64.36H836.128ZM833.675 58.3429C831.92 56.5873 829.763 55.733 827.271 55.8004L827.325 57.7996C829.273 57.747 830.897 58.3927 832.261 59.7571L833.675 58.3429ZM827.298 55.8H783.918V57.8H827.298V55.8ZM784.918 56.8V25.93H782.918V56.8H784.918ZM783.918 26.93H844.398V24.93H783.918V26.93ZM843.455 25.5976L840.125 35.0476L842.011 35.7123L845.341 26.2623L843.455 25.5976ZM841.068 34.38H796.608V36.38H841.068V34.38ZM795.608 35.38V47.08H797.608V35.38H795.608ZM796.605 48.08L829.275 48.17L829.281 46.17L796.611 46.08L796.605 48.08ZM829.324 48.1689C834.272 47.9415 838.506 49.5224 842.088 52.9341L843.468 51.4859C839.49 47.6976 834.724 45.9185 829.232 46.1711L829.324 48.1689ZM842.077 52.9233C845.308 56.0977 846.908 59.8917 846.908 64.36H848.908C848.908 59.3483 847.088 55.0423 843.479 51.4967L842.077 52.9233ZM846.908 64.3723C846.965 68.9587 845.364 72.8369 842.077 76.0668L843.479 77.4932C847.152 73.8831 848.971 69.4813 848.908 64.3477L846.908 64.3723ZM842.071 76.0729C838.551 79.5931 834.324 81.2283 829.323 81.001L829.233 82.999C834.792 83.2517 839.565 81.4069 843.485 77.4871L842.071 76.0729Z" fill="#D0CFCE" mask="url(#path-3-outside-1_0_95)"/>
</g>
<defs>
<filter id="filter0_d_0_95" x="10.6" y="18.6412" width="842.31" height="70.8359" filterUnits="userSpaceOnUse" color-interpolation-filters="sRGB">
<feFlood flood-opacity="0" result="BackgroundImageFix"/>
<feColorMatrix in="SourceAlpha" type="matrix" values="0 0 0 0 0 0 0 0 0 0 0 0 0 0 0 0 0 0 127 0" result="hardAlpha"/>
<feOffset dy="2"/>
<feGaussianBlur stdDeviation="2"/>
<feComposite in2="hardAlpha" operator="out"/>
<feColorMatrix type="matrix" values="0 0 0 0 0.85098 0 0 0 0 0.85098 0 0 0 0 0.85098 0 0 0 1 0"/>
<feBlend mode="normal" in2="BackgroundImageFix" result="effect1_dropShadow_0_95"/>
<feBlend mode="normal" in="SourceGraphic" in2="effect1_dropShadow_0_95" result="shape"/>
</filter>
</defs>
</svg>